Coordinates
version=1
nRows=10
nColumns=40
inDegrees=yes

Units are S.I. units (second, meters, Newtons, ...)
Angles are in degrees.

endheader
time	pelvis_tilt	pelvis_list	pelvis_rotation	pelvis_tx	pelvis_ty	pelvis_tz	hip_flexion_r	hip_adduction_r	hip_rotation_r	knee_angle_r	knee_angle_r_beta	ankle_angle_r	subtalar_angle_r	mtp_angle_r	hip_flexion_l	hip_adduction_l	hip_rotation_l	knee_angle_l	knee_angle_l_beta	ankle_angle_l	subtalar_angle_l	mtp_angle_l	lumbar_extension	lumbar_bending	lumbar_rotation	arm_flex_r	arm_add_r	arm_rot_r	elbow_flex_r	pro_sup_r	wrist_flex_r	wrist_dev_r	arm_flex_l	arm_add_l	arm_rot_l	elbow_flex_l	pro_sup_l	wrist_flex_l	wrist_dev_l
     10.50000000	      5.64614604	     10.24580831	     67.81150030	      0.47105655	      0.99514108	     -0.85621065	     19.29582783	      8.08888745	      8.79769276	     32.45011431	      0.56636134	     19.33866138	      0.00000000	      0.00000000	    -24.44355054	      1.74798044	    -18.71603949	      8.77459452	      0.15314556	     18.67044837	      0.00000000	      0.00000000	    -39.10440665	      0.10981389	     -3.51556851	      6.02546883	    -10.15760717	      4.83491834	    139.60162165	     85.29136620	      0.00000000	      0.00000000	     13.86655731	    -22.07466140	     -1.31897481	    144.38404743	     79.29670850	      0.00000000	      0.00000000
     10.51000000	      5.71022395	     10.08364501	     68.03213201	      0.47130804	      0.99511686	     -0.85499272	     19.37528434	      8.09267905	      8.25102050	     31.15290800	      0.54372082	     19.04242069	      0.00000000	      0.00000000	    -25.34826366	      1.88884349	    -18.62466258	      7.91356878	      0.13811783	     17.13083619	      0.00000000	      0.00000000	    -39.07888123	      0.34470147	     -3.73499958	      5.71922997	     -9.51628517	      4.34108125	    139.51058549	     85.29203062	      0.00000000	      0.00000000	     13.32002609	    -21.16581365	     -1.75320025	    144.24249225	     79.42067380	      0.00000000	      0.00000000
     10.52000000	      5.76048373	     10.05503356	     68.30606110	      0.47142107	      0.99512735	     -0.85385561	     19.31256783	      7.93333815	      7.46313946	     29.94441784	      0.52262868	     18.69456547	      0.00000000	      0.00000000	    -26.32059872	      2.03732349	    -18.41415297	      7.17191404	      0.12517351	     16.06231274	      0.00000000	      0.00000000	    -39.20835927	      0.55544672	     -3.96405500	      5.56486247	     -9.07385715	      3.87045951	    139.46961819	     85.28115349	      0.00000000	      0.00000000	     12.87335523	    -20.33342177	     -2.03045993	    144.08028954	     79.49173898	      0.00000000	      0.00000000
     10.53000000	      5.54367808	      9.85853317	     68.42690074	      0.47212322	      0.99429283	     -0.85267249	     19.56455328	      7.65942699	      6.77658770	     28.93742376	      0.50505332	     19.04820149	      0.00000000	      0.00000000	    -26.88510036	      2.35711352	    -18.38241261	      6.75962274	      0.11797767	     15.70105761	      0.00000000	      0.00000000	    -39.02393425	      0.45256528	     -4.08395998	      5.39885370	     -8.70648642	      3.35913883	    139.39021727	     85.24841799	      0.00000000	      0.00000000	     12.40708843	    -19.59921942	     -2.28992725	    143.88765800	     79.48495239	      0.00000000	      0.00000000
     10.54000000	      5.93079663	     10.02310721	     69.02779492	      0.47252516	      0.99440266	     -0.85223399	     18.79120201	      7.64497527	      5.51099564	     27.31693251	      0.47677041	     19.74441901	      0.00000000	      0.00000000	    -28.12032443	      1.98205764	    -17.54812730	      6.22015374	      0.10856216	     14.45155420	      0.00000000	      0.00000000	    -39.41738147	      1.05618734	     -4.33007223	      5.38813672	     -8.47727933	      2.81368180	    139.38833337	     85.26017424	      0.00000000	      0.00000000	     11.97477103	    -18.98102438	     -2.53113139	    143.70487868	     79.67529575	      0.00000000	      0.00000000
     10.55000000	      5.65899682	      9.75091073	     69.09158203	      0.47380248	      0.99302117	     -0.85086546	     19.23450026	      7.43588159	      5.14963384	     26.74993674	      0.46687447	     19.82980522	      0.00000000	      0.00000000	    -28.42443713	      2.22835779	    -17.44651590	      6.20048266	      0.10821884	     14.18853096	      0.00000000	      0.00000000	    -39.18200256	      0.85247341	     -4.25932473	      5.40774997	     -8.24192046	      2.45581830	    139.44439714	     85.23673396	      0.00000000	      0.00000000	     11.55696050	    -18.50406717	     -2.66782580	    143.57632744	     79.67352098	      0.00000000	      0.00000000
     10.56000000	      5.33288225	      9.35659587	     69.65838796	      0.47467753	      0.99121349	     -0.85050250	     19.61014460	      7.05436614	      4.30849393	     25.86773909	      0.45147722	     20.03987542	      0.00000000	      0.00000000	    -28.70097491	      2.29976089	    -16.64315376	      5.90586860	      0.10307685	     13.00952183	      0.00000000	      0.00000000	    -38.68398641	      0.92813772	     -4.45433665	      5.21025792	     -8.16539690	      1.84869155	    139.47895770	     85.21868779	      0.00000000	      0.00000000	     11.09281793	    -18.00061202	     -2.74500721	    143.41068507	     79.71324277	      0.00000000	      0.00000000
     10.57000000	      4.96298731	      9.04256883	     69.89443265	      0.47625781	      0.98907738	     -0.85013670	     19.86663979	      6.76169233	      3.89635980	     24.98895410	      0.43613953	     20.41195577	      0.00000000	      0.00000000	    -28.91745104	      2.51829010	    -16.40598994	      5.98736553	      0.10449924	     12.56412693	      0.00000000	      0.00000000	    -38.21458701	      0.73765321	     -4.43545476	      5.17193319	     -8.14984059	      1.39089717	    139.61469383	     85.17433098	      0.00000000	      0.00000000	     10.49474827	    -17.57121793	     -2.84097445	    143.35749596	     79.71168353	      0.00000000	      0.00000000
     10.58000000	      4.65502630	      8.83380906	     70.18105794	      0.47809317	      0.98730643	     -0.84971868	     19.97928745	      6.53192633	      3.86779106	     24.34929595	      0.42497538	     20.05832035	      0.00000000	      0.00000000	    -29.14688939	      2.63694226	    -16.07360706	      6.27939127	      0.10959605	     11.95348694	      0.00000000	      0.00000000	    -37.90183077	      0.57431499	     -4.36329456	      5.16485369	     -8.21291769	      1.07563876	    139.72307296	     85.14319350	      0.00000000	      0.00000000	      9.93164967	    -17.23872406	     -2.86736066	    143.32107874	     79.69881856	      0.00000000	      0.00000000
     10.59000000	      4.46061208	      8.68994606	     70.61402962	      0.48007117	      0.98561399	     -0.84960275	     19.78207369	      6.34711735	      3.71439150	     23.46318332	      0.40950980	     19.09867538	      0.00000000	      0.00000000	    -29.27857616	      2.50813666	    -15.57672785	      6.97811704	      0.12179112	     10.92292901	      0.00000000	      0.00000000	    -37.66926427	      0.56588950	     -4.30664260	      5.18157991	     -8.31011870	      0.87319691	    139.80019935	     85.12073929	      0.00000000	      0.00000000	      9.38093749	    -17.06261724	     -2.89656635	    143.23610223	     79.64868353	      0.00000000	      0.00000000
